<svg width="291" height="361" viewBox="0 0 291 361" fill="none" xmlns="http://www.w3.org/2000/svg">
<rect width="291" height="361" rx="10" fill="url(#paint0_linear_534_1627)"/>
<path d="M202.163 133.93C202.163 133.93 202.163 141.933 202.163 142.004C202.163 147.149 194.089 148.72 194.089 143.433C194.089 143.433 194.089 119.497 194.089 119.426C194.089 111.209 181.299 113.352 181.299 121.712C181.299 121.712 181.299 137.503 181.299 137.646C181.299 142.79 173.225 144.291 173.225 139.075C173.225 139.075 173.225 112.28 173.225 112.209C173.225 103.992 160.435 106.136 160.435 114.495V124.499C160.435 129.572 152.361 131.286 152.361 125.928V105.064C152.361 97.1328 139.572 98.9905 139.572 107.35C139.572 107.35 139.572 128.143 139.572 128.214C139.572 133.43 131.498 134.93 131.498 129.643C131.498 129.643 131.498 119.711 131.498 119.64C131.498 111.494 118.708 113.567 118.708 121.926C118.708 121.926 118.708 146.791 118.708 146.934C118.708 152.079 110.634 153.651 110.634 148.363C110.634 148.363 110.634 134.43 110.634 134.287C110.634 126.07 97.8441 128.285 97.8441 136.574C97.8441 136.574 97.8441 187.304 97.8441 187.447C97.8441 192.591 89.7701 194.163 89.7701 188.876C89.7701 188.876 89.7701 154.008 89.7701 153.936C89.7701 146.005 76.9803 147.935 76.9803 156.223C76.9803 229.032 76.9803 229.032 76.9803 228.031C76.9803 236.248 89.7701 234.105 89.7701 225.745C89.7701 225.745 89.7701 218.743 89.7701 218.671C89.7701 213.527 97.8441 211.955 97.8441 217.242C97.8441 217.242 97.8441 240.178 97.8441 240.249C97.8441 248.466 110.634 246.323 110.634 237.963C110.634 237.963 110.634 223.173 110.634 223.03C110.634 217.885 118.708 216.385 118.708 221.601C118.708 221.601 118.708 247.394 118.708 247.466C118.708 255.683 131.498 253.539 131.498 245.179V236.177C131.498 231.104 139.572 229.389 139.572 234.748V254.611C139.572 262.542 152.361 260.684 152.361 252.325C152.361 252.325 152.361 232.533 152.361 232.461C152.361 227.245 160.435 225.745 160.435 231.032C160.435 231.032 160.435 239.964 160.435 240.035C160.435 248.18 173.225 246.108 173.225 237.749C173.225 237.749 173.225 213.884 173.225 213.741C173.225 208.596 181.299 207.025 181.299 212.312C181.299 212.312 181.299 225.245 181.299 225.316C181.299 233.533 194.089 231.318 194.089 223.03C194.089 223.03 194.089 174.3 194.089 174.157C194.089 169.013 202.163 167.441 202.163 172.728C202.163 172.728 202.163 205.596 202.163 205.667C202.163 213.598 214.952 211.669 214.952 203.381V131.572C214.952 123.427 202.163 125.57 202.163 133.93Z" fill="url(#paint1_linear_534_1627)"/>
<path d="M138.142 153.15L173.225 167.226C179.155 169.584 179.155 178.23 173.225 182.66L138.142 209.097C132.212 213.598 124.781 210.597 124.781 203.738V163.225C124.781 156.366 132.212 150.721 138.142 153.15Z" fill="white"/>
<defs>
<linearGradient id="paint0_linear_534_1627" x1="291" y1="5.37932e-06" x2="182.967" y2="409.294" gradientUnits="userSpaceOnUse">
<stop stop-color="#2E0F59"/>
<stop offset="1" stop-color="#090526"/>
</linearGradient>
<linearGradient id="paint1_linear_534_1627" x1="92.0312" y1="243.073" x2="197.709" y2="114.777" gradientUnits="userSpaceOnUse">
<stop stop-color="#44118C"/>
<stop offset="1" stop-color="#9CD9C8"/>
</linearGradient>
</defs>
</svg>
