<svg width="143" height="73" viewBox="0 0 143 73" fill="none" xmlns="http://www.w3.org/2000/svg">
<path d="M136.631 15.2305C136.631 15.2305 136.631 18.8227 136.631 18.8548C136.631 21.164 133.007 21.8696 133.007 19.4963C133.007 19.4963 133.007 8.7518 133.007 8.71973C133.007 5.03134 127.266 5.99353 127.266 9.74607C127.266 9.74607 127.266 16.8342 127.266 16.8983C127.266 19.2076 123.641 19.8811 123.641 17.5398C123.641 17.5398 123.641 5.51243 123.641 5.48036C123.641 1.79197 117.9 2.75416 117.9 6.5067V10.9969C117.9 13.2741 114.276 14.0438 114.276 11.6384V2.27306C114.276 -1.28704 108.535 -0.453139 108.535 3.2994C108.535 3.2994 108.535 12.6326 108.535 12.6647C108.535 15.006 104.911 15.6796 104.911 13.3062C104.911 13.3062 104.911 8.84802 104.911 8.81595C104.911 5.15963 99.1696 6.08975 99.1696 9.84229C99.1696 9.84229 99.1696 21.0037 99.1696 21.0678C99.1696 23.3771 95.5454 24.0827 95.5454 21.7093C95.5454 21.7093 95.5454 15.4551 95.5454 15.3909C95.5454 11.7025 89.8043 12.6968 89.8043 16.4172C89.8043 16.4172 89.8043 39.1891 89.8043 39.2532C89.8043 41.5625 86.1801 42.2681 86.1801 39.8947C86.1801 39.8947 86.1801 24.243 86.1801 24.211C86.1801 20.6509 80.439 21.5168 80.439 25.2373C80.439 57.9197 80.439 57.9197 80.439 57.4706C80.439 61.159 86.1801 60.1968 86.1801 56.4443C86.1801 56.4443 86.1801 53.3012 86.1801 53.2691C86.1801 50.9598 89.8043 50.2542 89.8043 52.6276C89.8043 52.6276 89.8043 62.9231 89.8043 62.9551C89.8043 66.6435 95.5454 65.6813 95.5454 61.9288C95.5454 61.9288 95.5454 55.2897 95.5454 55.2255C95.5454 52.9163 99.1696 52.2428 99.1696 54.5841C99.1696 54.5841 99.1696 66.1624 99.1696 66.1945C99.1696 69.8829 104.911 68.9207 104.911 65.1682V61.127C104.911 58.8498 108.535 58.08 108.535 60.4855V69.4018C108.535 72.9619 114.276 72.128 114.276 68.3755C114.276 68.3755 114.276 59.4912 114.276 59.4592C114.276 57.1178 117.9 56.4443 117.9 58.8177C117.9 58.8177 117.9 62.8268 117.9 62.8589C117.9 66.5152 123.641 65.5851 123.641 61.8326C123.641 61.8326 123.641 51.1202 123.641 51.0561C123.641 48.7468 127.266 48.0412 127.266 50.4146C127.266 50.4146 127.266 56.2198 127.266 56.2519C127.266 59.9403 133.007 58.946 133.007 55.2255C133.007 55.2255 133.007 33.3518 133.007 33.2876C133.007 30.9784 136.631 30.2728 136.631 32.6462C136.631 32.6462 136.631 47.3997 136.631 47.4318C136.631 50.9919 142.372 50.1259 142.372 46.4055V14.1721C142.372 10.5158 136.631 11.478 136.631 15.2305Z" fill="url(#paint0_linear_500_1732)"/>
<path d="M107.893 23.8582L123.641 30.1766C126.303 31.235 126.303 35.1158 123.641 37.1043L107.893 48.9713C105.231 50.9919 101.896 49.6449 101.896 46.5658V28.3805C101.896 25.3015 105.231 22.7677 107.893 23.8582Z" fill="white"/>
<path d="M1.28292 52.2748C0.416949 51.473 0 50.158 0 48.394V47.1431L3.27144 46.5658V48.0732C3.27144 49.5165 3.88083 50.1259 5.06753 49.9014C5.64484 49.8052 6.09386 49.5486 6.41459 49.1316C6.73532 48.7468 6.86362 48.1374 6.86362 47.3676C6.86362 46.4375 6.63911 45.6678 6.22216 45.0263C5.80521 44.3848 5.03546 43.6792 3.88083 42.9095C2.43755 41.9152 1.44328 40.921 0.898043 40.0229C0.32073 39.0928 0.032073 38.0023 0.032073 36.7194C0.032073 34.9875 0.481095 33.5442 1.34706 32.4216C2.24511 31.2991 3.52803 30.5935 5.19582 30.3048C6.86362 30.0161 8.11446 30.2727 8.98043 31.0746C9.8464 31.8764 10.2634 33.1914 10.2634 34.9554V35.8855L6.99191 36.4628V35.3403C6.99191 34.5705 6.83154 34.0573 6.54289 33.7687C6.25423 33.48 5.80521 33.3838 5.25997 33.48C4.10534 33.6725 3.52803 34.5064 3.52803 35.8855C3.52803 36.6873 3.75254 37.3929 4.16949 38.0023C4.58644 38.6117 5.38826 39.3173 6.51081 40.1191C7.9541 41.1134 8.94836 42.1077 9.4936 43.0378C10.0388 43.9679 10.3275 45.1225 10.3275 46.5337C10.3275 48.3298 9.87848 49.8052 8.98043 50.9277C8.08239 52.0503 6.79947 52.7559 5.06753 53.0766C3.43181 53.3332 2.14889 53.0766 1.28292 52.2748Z" fill="#B252F2"/>
<path d="M15.0422 32.0368L11.418 32.6782V29.5351L22.1624 27.6428V30.7859L18.5382 31.4274V50.3504L15.0743 50.9598V32.0368H15.0422Z" fill="#B252F2"/>
<path d="M23.8302 27.322L28.9619 26.424C30.758 26.1032 32.0409 26.2957 32.8748 26.9692C33.7087 27.6428 34.0936 28.8615 34.0936 30.5935V31.9405C34.0936 34.2498 33.3238 35.8214 31.8164 36.6873V36.7515C32.6503 36.8477 33.2597 37.2646 33.6125 37.9703C33.9653 38.6759 34.1256 39.7022 34.1256 41.0172V44.898C34.1256 45.5395 34.1577 46.0206 34.1898 46.4054C34.2219 46.7903 34.3502 47.1431 34.5105 47.4959L30.9825 48.1053C30.8542 47.7846 30.758 47.4639 30.7259 47.1431C30.6938 46.8224 30.6618 46.2771 30.6618 45.4433V41.4021C30.6618 40.4078 30.5014 39.7022 30.1807 39.3815C29.8599 39.0287 29.2826 38.9324 28.4808 39.0928L27.2941 39.3173V48.7788L23.8302 49.3882V27.322ZM28.577 35.9817C29.2826 35.8534 29.7958 35.5969 30.1486 35.1799C30.5014 34.763 30.6618 34.1215 30.6618 33.2876V31.5877C30.6618 30.7859 30.5335 30.2407 30.2448 29.9199C29.9562 29.5992 29.5071 29.503 28.8978 29.6313L27.3262 29.9199V36.2383L28.577 35.9817Z" fill="#B252F2"/>
<path d="M36.5311 25.109L45.9926 23.4412V26.5844L39.995 27.6428V33.4801L44.7739 32.6462V35.7893L39.995 36.6232V43.4227L45.9926 42.3643V45.5074L36.5311 47.1752V25.109Z" fill="#B252F2"/>
<path d="M50.6753 22.6073L55.39 21.7734L58.9822 43.2303L55.5183 43.8396L54.8769 39.5739V39.6381L50.9319 40.3437L50.2904 44.7698L47.0831 45.3471L50.6753 22.6073ZM54.4599 36.7194L52.9204 26.0712H52.8563L51.3488 37.2647L54.4599 36.7194Z" fill="#B252F2"/>
<path d="M60.65 20.8433L65.5892 19.9773L67.8023 35.4044H67.8664L70.0794 19.2076L75.0187 18.3416V40.4399L71.7472 41.0172V24.243H71.6831L69.1493 41.4021L66.2307 41.9152L63.6969 25.6222H63.6328V42.3643L60.6179 42.9095V20.8433H60.65Z" fill="#B252F2"/>
<path d="M30.0203 72.128C29.1543 71.3262 28.7053 70.0753 28.7053 68.3434V56.4764C28.7053 54.7444 29.1543 53.3332 30.0203 52.2427C30.8863 51.1523 32.1692 50.4467 33.837 50.158C35.5048 49.8693 36.7556 50.1259 37.6537 50.8957C38.5196 51.6975 38.9687 52.9483 38.9687 54.6803V57.0216L35.6972 57.5989V55.0331C35.6972 53.654 35.1199 53.0766 33.9653 53.3011C32.8107 53.4936 32.2333 54.2954 32.2333 55.6746V68.0226C32.2333 69.3697 32.8107 69.947 33.9653 69.7225C35.1199 69.5301 35.6972 68.7283 35.6972 67.3812V64.0135L38.9687 63.4362V66.5473C38.9687 68.2792 38.5196 69.6904 37.6537 70.7809C36.7877 71.8714 35.5048 72.577 33.837 72.8657C32.1692 73.1864 30.8863 72.9298 30.0203 72.128Z" fill="#B252F2"/>
<path d="M43.6834 48.7468L48.3981 47.9129L51.9903 69.3697L48.5264 69.9791L47.885 65.7134V65.7775L43.94 66.4832L43.2985 70.9092L40.0912 71.4865L43.6834 48.7468ZM47.468 62.8268L45.9285 52.1786H45.8644L44.3569 63.3721L47.468 62.8268Z" fill="#B252F2"/>
<path d="M54.2675 67.8302C53.4015 67.0284 52.9846 65.7134 52.9846 63.9494V62.6985L56.256 62.1212V63.6286C56.256 65.0719 56.8654 65.6813 58.0521 65.4568C58.6294 65.3606 59.0784 65.104 59.3991 64.6871C59.7199 64.2701 59.8482 63.6928 59.8482 62.923C59.8482 61.9929 59.6237 61.2232 59.2067 60.5817C58.7898 59.9403 58.02 59.2346 56.8654 58.4649C55.4221 57.4706 54.4278 56.4764 53.8826 55.5783C53.3053 54.6482 53.0166 53.5577 53.0166 52.2748C53.0166 50.5429 53.4656 49.0996 54.3316 47.977C55.2297 46.8545 56.5126 46.1489 58.1804 45.8602C59.8482 45.5716 61.099 45.8281 61.965 46.63C62.831 47.4318 63.2479 48.7468 63.2479 50.5108V51.4409L59.9765 52.0182V50.8957C59.9765 50.1259 59.8161 49.6128 59.5274 49.3241C59.2388 49.0354 58.7898 48.9392 58.2445 49.0354C57.0899 49.2279 56.5126 50.0618 56.5126 51.4409C56.5126 52.2427 56.7371 52.9483 57.154 53.5577C57.571 54.1671 58.3728 54.8727 59.4954 55.6746C60.9386 56.6688 61.9329 57.6631 62.4782 58.5932C63.0234 59.5233 63.312 60.6779 63.312 62.0891C63.312 63.8852 62.863 65.3606 61.965 66.4831C61.0669 67.6057 59.784 68.3113 58.0521 68.632C56.4164 68.8886 55.1334 68.6641 54.2675 67.8302Z" fill="#B252F2"/>
<path d="M68.0268 47.5922L64.4025 48.2336V45.0905L75.147 43.1982V46.3413L71.5227 46.9828V65.9058L68.0588 66.5152V47.5922H68.0268Z" fill="#B252F2"/>
<defs>
<linearGradient id="paint0_linear_500_1732" x1="87.195" y1="64.2228" x2="134.632" y2="6.63302" gradientUnits="userSpaceOnUse">
<stop stop-color="#44118C"/>
<stop offset="1" stop-color="#9CD9C8"/>
</linearGradient>
</defs>
</svg>
